Coordinates
version=1
nRows=4
nColumns=107
inDegrees=yes

Units are S.I. units (second, meters, Newtons, ...)
If the header above contains a line with 'inDegrees', this indicates whether rotational values are in degrees (yes) or radians (no).

endheader
time	sternoclavicular_r2	sternoclavicular_r3	unrotscap_r3	unrotscap_r2	acromioclavicular_r2	acromioclavicular_r3	acromioclavicular_r1	unrothum_r1	unrothum_r3	unrothum_r2	elv_angle	shoulder_elv	shoulder1_r2	shoulder_rot	elbow_flexion	pro_sup	deviation	flexion	proximal_distal_r1	proximal_distal_r3	cmc_flexion	cmc_abduction	mp_flexion	ip_flexion	mcp2_flexion	mcp2_abduction	pm2_flexion	md2_flexion	mcp3_flexion	mcp3_abduction	pm3_flexion	md3_flexion	mcp4_flexion	mcp4_abduction	pm4_flexion	md4_flexion	mcp5_flexion	mcp5_abduction	pm5_flexion	md5_flexion	bicpt_tx	bicpt_ty	bicpt_tz	bicpt2_tx	bicpt2_ty	bicpt2_tz	ptpt_tx	ptpt_ty	ptpt_tz	FCUpt_tx	FCUpt_ty	FCUpt_tz	EDCpt_tx	EDCpt_ty	EDCpt_tz	APLpt_tx	APLpt_ty	APLpt_tz	FPLpt_tx	FPLpt_ty	FPLpt_tz	FPLpt2_tx	FPLpt2_ty	FPLpt2_tz	PEC1pt2_tx	PEC1pt2_ty	PEC1pt2_tz	PEC1pt3_tx	PEC1pt3_ty	PEC1pt3_tz	PEC2pt2_tx	PEC2pt2_ty	PEC2pt2_tz	PEC2pt3_tx	PEC2pt3_ty	PEC2pt3_tz	PEC3pt2_tx	PEC3pt2_ty	PEC3pt2_tz	PEC3pt3_tx	PEC3pt3_ty	PEC3pt3_tz	DELT2pt2a_tx	DELT2pt2a_ty	DELT2pt2a_tz	DELT2pt2_tx	DELT2pt2_ty	DELT2pt2_tz	LAT1pt2_tx	LAT1pt2_ty	LAT1pt2_tz	LAT1pt3_tx	LAT1pt3_ty	LAT1pt3_tz	LAT2pt2_tx	LAT2pt2_ty	LAT2pt2_tz	LAT2pt3_tx	LAT2pt3_ty	LAT2pt3_tz	LAT3pt2_tx	LAT3pt2_ty	LAT3pt2_tz	LAT3pt3_tx	LAT3pt3_ty	LAT3pt3_tz
      0.00000000	     -0.31711914	      0.13431670	     -0.13431670	      0.31711914	     -0.06421018	      0.51892405	      0.23325279	     -0.23325279	     -0.51892405	      0.06421018	    100.47348381	     75.08077584	     -1.75359310	    -33.29006055	     31.48687708	     85.89273718	      0.36039479	     -0.48607699	      0.38279517	     -0.24303850	     41.39030473	    -21.64302406	     18.18116055	      8.68110090	     69.65003564	      8.98583449	     79.98754541	     52.48182759	     88.14161358	     -3.03232674	     81.61358871	     50.66492358	     87.37933022	    -13.23759190	     92.55234029	     34.29141200	     85.60468554	    -14.00452908	     95.12066017	      5.49357438	      0.00094149	     -0.03120888	     -0.00488130	      0.01425098	     -0.01875356	     -0.00109440	      0.00120350	     -0.06900375	     -0.00696912	      0.01272568	     -0.18224137	      0.00008085	     -0.01030710	      0.00357213	     -0.00075378	      0.00029946	      0.00011978	      0.00059892	      0.00038331	      0.00114992	      0.00064683	     -0.00000846	     -0.00008300	     -0.00009960	      0.00246098	      0.00863430	      0.00600647	     -0.00805033	      0.01943760	     -0.01843652	      0.00246098	      0.00863430	      0.00600647	      0.00054225	      0.01801940	     -0.00946853	      0.00390661	      0.00480142	      0.01586571	      0.00000000	      0.00753740	      0.00000000	     -0.00704926	     -0.03257674	     -0.00621354	      0.02026410	     -0.00087087	     -0.00916446	     -0.00087594	      0.01468248	     -0.00600647	      0.00241927	      0.02118948	     -0.01751886	     -0.00588133	      0.01272203	     -0.00538079	     -0.01226320	      0.02686226	     -0.03007405	     -0.02302479	      0.01422365	     -0.00721610	     -0.01526644	      0.03103341	     -0.03758213
      0.03333333	     -0.31685912	      0.13420657	     -0.13420657	      0.31685912	     -0.06415753	      0.51849857	      0.23306154	     -0.23306154	     -0.51849857	      0.06415753	    100.46184176	     75.01921430	     -1.75338991	    -33.51609008	     31.56436633	     86.00421450	      0.36000527	     -0.49453318	      0.38249644	     -0.24726659	     41.62630465	    -21.27302387	     18.16597982	      8.49822536	     68.97642423	      9.40354817	     80.38725910	     56.21629774	     88.31960316	     -2.79019002	     81.48059802	     51.19807408	     86.66297972	    -13.25192822	     92.31998388	     36.61282979	     85.73137709	    -14.04527587	     95.09824223	      5.45227806	      0.00094405	     -0.03121776	     -0.00488273	      0.01423947	     -0.01877461	     -0.00107532	      0.00119526	     -0.06900908	     -0.00697810	      0.01273849	     -0.18223759	      0.00008391	     -0.01032048	      0.00357824	     -0.00075735	      0.00030117	      0.00012047	      0.00060233	      0.00038549	      0.00115648	      0.00065052	     -0.00000806	     -0.00007802	     -0.00009362	      0.00245897	      0.00862722	      0.00600154	     -0.00804373	      0.01942166	     -0.01842140	      0.00245897	      0.00862722	      0.00600154	      0.00054181	      0.01800463	     -0.00946076	      0.00390425	      0.00479749	      0.01585985	      0.00000000	      0.00752496	      0.00000000	     -0.00704348	     -0.03255003	     -0.00620321	      0.02035401	     -0.00087879	     -0.00928340	     -0.00087522	      0.01467044	     -0.00600154	      0.00241729	      0.02117211	     -0.01750450	     -0.00587651	      0.01271160	     -0.00537638	     -0.01225315	      0.02684023	     -0.03004939	     -0.02300591	      0.01421199	     -0.00721019	     -0.01525392	      0.03100797	     -0.03755132
      0.06666667	     -0.31656290	      0.13408110	     -0.13408110	      0.31656290	     -0.06409755	      0.51801384	      0.23284365	     -0.23284365	     -0.51801384	      0.06409755	    100.42334447	     74.94908057	     -1.75271801	    -33.68389743	     31.71423571	     86.08162343	      0.36249427	     -0.49011356	      0.38440230	     -0.24505678	     41.82906848	    -20.96103055	     18.19800417	      8.67136396	     68.73294993	      9.58201240	     80.68886772	     59.44051112	     88.30394786	     -2.43059669	     81.53897056	     51.53438024	     85.81921458	    -13.24564106	     92.64438599	     37.29070835	     85.90870575	    -14.07030790	     95.39604504	      5.43335593	      0.00094901	     -0.03123494	     -0.00488549	      0.01423146	     -0.01881533	     -0.00106206	      0.00118954	     -0.06901278	     -0.00698434	      0.01274738	     -0.18223497	      0.00008605	     -0.01032977	      0.00358249	     -0.00075984	      0.00030029	      0.00012012	      0.00060058	      0.00038437	      0.00115311	      0.00064863	     -0.00000769	     -0.00007369	     -0.00008842	      0.00245667	      0.00861915	      0.00599593	     -0.00803621	      0.01940350	     -0.01840418	      0.00245667	      0.00861915	      0.00599593	      0.00054130	      0.01798779	     -0.00945192	      0.00390156	      0.00479300	      0.01585316	      0.00000000	      0.00751080	      0.00000000	     -0.00703689	     -0.03251960	     -0.00619145	      0.02042033	     -0.00088468	     -0.00937205	     -0.00087441	      0.01465672	     -0.00599593	      0.00241503	      0.02115231	     -0.01748813	     -0.00587102	      0.01269972	     -0.00537136	     -0.01224169	      0.02681514	     -0.03002130	     -0.02298440	      0.01419870	     -0.00720345	     -0.01523966	      0.03097898	     -0.03751621
      0.10000000	     -0.31630962	      0.13397383	     -0.13397383	      0.31630962	     -0.06404626	      0.51759938	      0.23265736	     -0.23265736	     -0.51759938	      0.06404626	    100.41884115	     74.88911419	     -1.75263941	    -33.86716441	     31.79376985	     86.07948348	      0.36293784	     -0.49245060	      0.38474127	     -0.24622530	     41.98699533	    -20.76575879	     18.34769403	      8.26320751	     68.51803584	      9.79270906	     81.13230354	     60.49026812	     88.21144610	     -2.19381733	     81.50936785	     51.65491395	     85.08684060	    -13.25198969	     93.02730483	     37.91593310	     86.14468402	    -14.08979597	     95.79506518	      5.45870918	      0.00095164	     -0.03124405	     -0.00488696	      0.01423169	     -0.01883693	     -0.00106243	      0.00118970	     -0.06901268	     -0.00698416	      0.01274713	     -0.18223504	      0.00008599	     -0.01032951	      0.00358238	     -0.00075977	      0.00030077	      0.00012031	      0.00060153	      0.00038498	      0.00115494	      0.00064965	     -0.00000740	     -0.00007029	     -0.00008434	      0.00245470	      0.00861226	      0.00599113	     -0.00802978	      0.01938798	     -0.01838945	      0.00245470	      0.00861226	      0.00599113	      0.00054087	      0.01797340	     -0.00944436	      0.00389927	      0.00478917	      0.01584743	      0.00000000	      0.00749871	      0.00000000	     -0.00703126	     -0.03249358	     -0.00618141	      0.02049232	     -0.00089112	     -0.00946922	     -0.00087371	      0.01464499	     -0.00599113	      0.00241310	      0.02113539	     -0.01747414	     -0.00586632	      0.01268956	     -0.00536706	     -0.01223190	      0.02679368	     -0.02999728	     -0.02296601	      0.01418734	     -0.00719768	     -0.01522747	      0.03095419	     -0.03748619
